# xmcd
#
# Track frame offsets: 
#        150
#        9887
#        32349
#        49172
#        78682
#        96560
#        114919
#        128259
#        142580
#        159410
#        171747
#        187720
#        204832
#
# Disc length: 2900 seconds
#
# Revision: 0
# Processed by: cddbd v1.5.2PL0 Copyright (c) Steve Scherf et al.
# Submitted via: ExactAudioCopy v0.99pb4
#
DISCID=930b520d
DTITLE=Taj Mahal - Dancing The Blues
DYEAR=1993
DGENRE=Blues
TTITLE0=Blues Ain't Nothin'
TTITLE1=Hard Way
TTITLE2=Strut
TTITLE3=Going To The River
TTITLE4=Mockingbird
TTITLE5=Blue Light Boogie
TTITLE6=The Hoochi Coochi Coo
TTITLE7=That's How Strong My Love Is
TTITLE8=Down Home Girl
TTITLE9=Stranger In My Own Home Town
TTITLE10=Sitting On Top Of The World
TTITLE11=I'm Ready
TTITLE12=I Can't Help Myself (Sugar Pie, Honey Bunch)
EXTD=
EXTT0=
EXTT1=
EXTT2=
EXTT3=
EXTT4=
EXTT5=
EXTT6=
EXTT7=
EXTT8=
EXTT9=
EXTT10=
EXTT11=
EXTT12=
PLAYORDER=
